<svg xmlns="http://www.w3.org/2000/svg" width="24" height="24" viewBox="0 0 24 24" fill="none">
<path d="M10.7778 3C10.976 3.00022 11.1667 3.07613 11.3108 3.21222C11.455 3.3483 11.5417 3.5343 11.5534 3.7322C11.565 3.9301 11.5006 4.12496 11.3734 4.27698C11.2461 4.429 11.0656 4.5267 10.8688 4.55011L10.7778 4.55556H4.55556V15.4444H15.4444V9.22222C15.4447 9.02398 15.5206 8.83331 15.6567 8.68916C15.7927 8.54501 15.9787 8.45826 16.1766 8.44664C16.3745 8.43503 16.5694 8.49941 16.7214 8.62665C16.8734 8.75389 16.9711 8.93437 16.9946 9.13122L17 9.22222V15.4444C17.0001 15.8369 16.8519 16.2149 16.5851 16.5026C16.3182 16.7904 15.9525 16.9667 15.5611 16.9961L15.4444 17H4.55556C4.16311 17.0001 3.78511 16.8519 3.49735 16.5851C3.20959 16.3182 3.03332 15.9525 3.00389 15.5611L3 15.4444V4.55556C2.99988 4.16311 3.14809 3.78511 3.41494 3.49735C3.68179 3.20959 4.04755 3.03332 4.43889 3.00389L4.55556 3H10.7778ZM15.6334 3.26678C15.7734 3.12728 15.9612 3.0463 16.1587 3.04027C16.3563 3.03424 16.5487 3.10361 16.6969 3.2343C16.8451 3.365 16.938 3.54721 16.9568 3.74392C16.9755 3.94064 16.9187 4.13712 16.7978 4.29344L16.7332 4.36733L9.03322 12.0666C8.89326 12.206 8.70544 12.287 8.50792 12.2931C8.31041 12.2991 8.118 12.2297 7.96978 12.099C7.82157 11.9683 7.72865 11.7861 7.70991 11.5894C7.69117 11.3927 7.74801 11.1962 7.86889 11.0399L7.93344 10.9668L15.6334 3.26678Z" fill="#85B6FF"/>
</svg>